<svg xmlns="http://www.w3.org/2000/svg" viewBox="0 0 413.02 569.36"><defs><style>.cls-1{fill:#fff;}.cls-2{fill:#231f20;}.cls-3{fill:#dcddde;}</style></defs><g id="Layer_2" data-name="Layer 2"><g id="Capa_1" data-name="Capa 1"><polygon class="cls-1" points="253.99 6.5 6.5 6.5 6.5 562.86 406.5 562.86 406.5 159.01 253.99 6.5"/><path class="cls-2" d="M406.5,569.36H6.5a6.5,6.5,0,0,1-6.5-6.5V6.5A6.5,6.5,0,0,1,6.5,0H254a6.49,6.49,0,0,1,4.6,1.9L411.1,154.42A6.53,6.53,0,0,1,413,159V562.86A6.5,6.5,0,0,1,406.5,569.36ZM251.29,13H13V556.36H400V161.71Z"/><polygon class="cls-3" points="253.99 6.5 406.5 159.01 253.99 159.01 253.99 6.5"/><path class="cls-2" d="M406.5,165.52h-159V4.76c2.22-5.42,8-6,11.1-2.86L410.8,154.13c2.81,2.46,3.48,7.31-1.15,11.39Zm-146-143.33V152.52H390.81Z"/></g></g></svg>