<svg xmlns="http://www.w3.org/2000/svg" viewBox="0 0 449.41 569.36"><defs><style>.cls-1{fill:#e96228;}.cls-2{fill:#231f20;}.cls-3{fill:#fff;}.cls-4{fill:#dcddde;}</style></defs><g id="Layer_2" data-name="Layer 2"><g id="Capa_1" data-name="Capa 1"><path class="cls-1" d="M65.48,452.85C93.23,416.41,52,375.22,15.6,403-12.15,439.41,29,480.6,65.48,452.85Z"/><path class="cls-2" d="M70.18,457.55C27,490.76-22.31,441.47,10.9,398.27,54.1,365.07,103.39,414.35,70.18,457.55Zm-9.5-49.78C31.33,385.22-2.15,418.7,20.4,448.05,49.75,470.61,83.24,437.12,60.68,407.77Z"/><polygon class="cls-3" points="290.37 6.5 42.89 6.5 42.89 562.86 442.89 562.86 442.89 562.86 442.89 159.01 290.37 6.5"/><path class="cls-2" d="M442.89,569.36h-400a6.5,6.5,0,0,1-6.5-6.5V6.5A6.5,6.5,0,0,1,42.89,0H290.37A6.49,6.49,0,0,1,295,1.9L447.48,154.42a6.5,6.5,0,0,1,1.91,4.6V562.86A6.5,6.5,0,0,1,442.89,569.36ZM287.68,13H49.39V556.36h387V161.71Z"/><polygon class="cls-4" points="290.37 6.5 442.89 159.01 290.37 159.01 290.37 6.5"/><path class="cls-2" d="M442.89,165.52h-159V4.73c2.25-5.4,8-5.94,11.1-2.83L447.19,154.13c2.81,2.46,3.48,7.32-1.17,11.39Zm-146-143.33V152.52H427.19Z"/><path class="cls-1" d="M7,231.62V421.53H7.7a36.61,36.61,0,0,1,35.94-29.64H412.31V231.62Z"/><path class="cls-2" d="M13.53,428H.53V225.12H418.81V398.39H43.64A30.12,30.12,0,0,0,13.53,428ZM405.81,238.12H13.53V397.67a43,43,0,0,1,30.11-12.28H405.81Z"/><path class="cls-3" d="M48.11,272c0-4.44,6-7.55,9.72-1.76V306h49.73V270.23c3.78-5.79,9.73-2.68,9.73,1.76v77.55c0,4.44-6,7.55-9.73,1.76V315.07H57.83V351.3c-3.77,5.79-9.72,2.68-9.72-1.76Z"/><path class="cls-3" d="M164.44,276.67H137.49c-5-3.66-2-9,2-9H201.3c4.86,4,1.88,9-2,9h-25v75.16c-4.27,5.06-9.84,2-9.84-2.29Z"/><path class="cls-3" d="M221.43,267.31h5.91a5.32,5.32,0,0,1,4.55,2.59l30.78,46.28,30.77-46.28a5.24,5.24,0,0,1,4.56-2.59h5.9v82.23a4.91,4.91,0,0,1-4.8,4.92,5,5,0,0,1-4.92-4.92V285.28l-27.57,40.5a4.77,4.77,0,0,1-4.07,2.46,5,5,0,0,1-4.18-2.46l-27.45-40.37v66.52c-4.15,4.8-9.48,2.05-9.48-2.27Z"/><path class="cls-3" d="M329,271.13c0-4.44,5.94-7.55,9.72-1.77V344h46.77c4.49,4,1.82,9-2.09,9h-49.6a4.91,4.91,0,0,1-4.8-4.93Z"/></g></g></svg>