<svg xmlns="http://www.w3.org/2000/svg" viewBox="0 0 449.41 569.36"><defs><style>.cls-1{fill:#00a0dc;}.cls-2{fill:#231f20;}.cls-3{fill:#fff;}.cls-4{fill:#dcddde;}</style></defs><g id="Layer_2" data-name="Layer 2"><g id="Capa_1" data-name="Capa 1"><circle class="cls-1" cx="40.54" cy="427.91" r="34.04" transform="translate(-97.23 20.76) rotate(-13.28)"/><path class="cls-2" d="M40.54,468.45a40.54,40.54,0,1,1,40.54-40.54A40.58,40.58,0,0,1,40.54,468.45Zm0-68.08a27.54,27.54,0,1,0,27.54,27.54A27.57,27.57,0,0,0,40.54,400.37Z"/><path class="cls-3" d="M290.37,6.5H124.74A81.85,81.85,0,0,0,42.89,88.35V481a81.84,81.84,0,0,0,81.85,81.85H361A81.85,81.85,0,0,0,442.89,481V159Z"/><path class="cls-2" d="M361,569.36H124.74A88.45,88.45,0,0,1,36.39,481V88.35A88.45,88.45,0,0,1,124.74,0H290.37A6.53,6.53,0,0,1,295,1.9L447.48,154.42a6.5,6.5,0,0,1,1.91,4.6V481A88.45,88.45,0,0,1,361,569.36ZM124.74,13A75.43,75.43,0,0,0,49.39,88.35V481a75.43,75.43,0,0,0,75.35,75.35H361A75.44,75.44,0,0,0,436.39,481V161.71L287.68,13Z"/><path class="cls-4" d="M290.37,6.5,442.89,159h-120a32.53,32.53,0,0,1-32.53-32.53Z"/><path class="cls-2" d="M442.91,165.52h-120a39.08,39.08,0,0,1-39-39V6.5A6.51,6.51,0,0,1,295,1.9L447.19,154.12a6.51,6.51,0,0,1-4.28,11.4Zm-146-143.33v104.3a26.06,26.06,0,0,0,26,26H427.19Z"/><path class="cls-1" d="M43.64,231.62A36.61,36.61,0,0,0,7,268.23V421.54H7.7a36.61,36.61,0,0,1,35.94-29.65H412.31V231.62Z"/><path class="cls-2" d="M7.7,428H7a6.5,6.5,0,0,1-6.5-6.5V268.23a43.15,43.15,0,0,1,43.11-43.11H412.31a6.5,6.5,0,0,1,6.5,6.5V391.9a6.51,6.51,0,0,1-6.5,6.5H43.64a30.13,30.13,0,0,0-29.56,24.37A6.5,6.5,0,0,1,7.7,428ZM43.64,238.12a30.14,30.14,0,0,0-30.11,30.11V397.67A43,43,0,0,1,43.64,385.4H405.81V238.12Z"/><path class="cls-3" d="M112.52,342.93a4.37,4.37,0,0,1-1.85-3.69,4.7,4.7,0,0,1,4.68-4.8,4.27,4.27,0,0,1,3,1.11c8.13,6.89,16.25,10.21,27.21,10.21,11.57,0,19.2-6.15,19.2-14.64v-.25c0-8-4.31-12.56-22.4-16.37-19.82-4.31-28.93-10.71-28.93-24.87v-.24c0-13.54,11.94-23.51,28.31-23.51,11.32,0,19.57,2.83,27.45,8.49a5,5,0,0,1,2.09,3.94,4.68,4.68,0,0,1-4.68,4.68,4.6,4.6,0,0,1-2.83-.86c-7.26-5.3-14.28-7.51-22.28-7.51-11.2,0-18.34,6.15-18.34,13.91v.24c0,8.13,4.43,12.68,23.39,16.74,19.2,4.19,28.07,11.2,28.07,24.38v.24c0,14.77-12.31,24.37-29.42,24.37C132.58,354.5,122.12,350.56,112.52,342.93Z"/><path class="cls-3" d="M228.88,349.58l-33.23-76.69a4.48,4.48,0,0,1-.49-2.21,5,5,0,0,1,4.92-4.8,5.45,5.45,0,0,1,5,3.69L234.92,341l29.91-71.64c.86-1.72,2.58-3.44,4.8-3.44a4.78,4.78,0,0,1,4.8,4.67,5,5,0,0,1-.37,2L240.7,349.58c-1.11,2.46-2.83,4.06-5.66,4.06h-.49A5.85,5.85,0,0,1,228.88,349.58Z"/><path class="cls-3" d="M287.77,311v-.25c0-23.63,17.35-44.56,43.2-44.56,13,0,21.55,3.45,29.42,9.24a4.92,4.92,0,0,1-2.83,8.86,5.09,5.09,0,0,1-3.07-1.23c-6.16-4.68-13.05-7.88-23.88-7.88-19.08,0-32.75,16.13-32.75,35.33v.24c0,20.56,13.17,35.82,34.1,35.82A40.54,40.54,0,0,0,356.82,338V316.53H333.68a4.37,4.37,0,0,1,0-8.74h27.7a4.92,4.92,0,0,1,4.8,4.92v26.22a7,7,0,0,1-3.32,5.91,52.51,52.51,0,0,1-31.27,10.46C304.51,355.3,287.77,335.61,287.77,311Z"/></g></g></svg>