<svg xmlns="http://www.w3.org/2000/svg" viewBox="0 0 449.41 569.36"><defs><style>.cls-1{fill:#00a79d;}.cls-2{fill:#231f20;}.cls-3{fill:#fff;}.cls-4{fill:#dcddde;}</style></defs><g id="Layer_2" data-name="Layer 2"><g id="Capa_1" data-name="Capa 1"><path class="cls-1" d="M65.48,452.85C93.23,416.41,52,375.22,15.6,403-12.15,439.41,29,480.6,65.48,452.85Z"/><path class="cls-2" d="M70.18,457.56C27,490.76-22.31,441.47,10.9,398.27,54.1,365.06,103.39,414.35,70.18,457.56Zm-9.5-49.79C31.33,385.22-2.15,418.7,20.4,448.05,49.75,470.61,83.24,437.13,60.68,407.77Z"/><polygon class="cls-3" points="290.37 6.5 42.89 6.5 42.89 562.86 442.89 562.86 442.89 159.01 290.37 6.5"/><path class="cls-2" d="M442.89,569.36h-400a6.5,6.5,0,0,1-6.5-6.5V6.5A6.5,6.5,0,0,1,42.89,0H290.37A6.51,6.51,0,0,1,295,1.9L447.48,154.42a6.5,6.5,0,0,1,1.91,4.6V562.86A6.5,6.5,0,0,1,442.89,569.36ZM287.68,13H49.39V556.36h387V161.71Z"/><polygon class="cls-4" points="290.37 6.5 442.89 159.01 290.37 159.01 290.37 6.5"/><path class="cls-2" d="M442.91,165.52h-159V4.76c2.22-5.42,8-6,11.1-2.86L447.19,154.12a6.51,6.51,0,0,1-4.28,11.4Zm-146-143.33V152.52H427.19Z"/><path class="cls-1" d="M7,231.62V421.53H7.7a36.61,36.61,0,0,1,35.94-29.64H412.31V231.62Z"/><path class="cls-2" d="M13.53,428H.53V225.12H418.81V398.39H43.64A30.13,30.13,0,0,0,13.53,428ZM405.81,238.12H13.53V397.67a43,43,0,0,1,30.11-12.28H405.81Z"/><path class="cls-3" d="M45.18,273.05a4.91,4.91,0,0,1,4.8-4.93H75.09c27.08,0,45.79,18.59,45.79,42.84v.25c0,24.24-18.71,43.08-45.79,43.08H50a4.91,4.91,0,0,1-4.8-4.93ZM75.09,345.3c21.79,0,35.7-14.77,35.7-33.85v-.24c0-19.09-13.91-34.1-35.7-34.1H54.9V345.3Z"/><path class="cls-3" d="M137.63,311.45v-.24c0-23.76,17.85-44.56,44.06-44.56S225.52,287.2,225.52,311v.25c0,23.75-17.85,44.55-44.07,44.55S137.63,335.21,137.63,311.45Zm77.79,0v-.24c0-19.58-14.28-35.58-34-35.58S147.72,291.39,147.72,311v.25c0,19.57,14.28,35.57,34,35.57S215.42,331,215.42,311.45Z"/><path class="cls-3" d="M242.26,311.45v-.24c0-24.38,18.22-44.56,43.58-44.56,13.91,0,22.77,4.55,30.77,11.2a5,5,0,0,1,1.08,6.83c-3.17,3.08-5.85,1.72-7.24.8-6.64-5.91-14.15-9.85-24.74-9.85-19.08,0-33.36,15.51-33.36,35.33v.25c0,19.94,14.41,35.57,33.36,35.57,10.71,0,18.22-3.69,25.61-10.46,1.61-1.62,5-2.65,7.58,2.07a4.56,4.56,0,0,1-1.43,4.7c-8.49,7.75-17.85,12.67-32,12.67C260.6,355.76,242.26,336.19,242.26,311.45Z"/><path class="cls-3" d="M333,346.9l28.8-36.56-27.33-34.46a6,6,0,0,1-1.6-3.7,4.78,4.78,0,0,1,4.8-4.67c2,0,3.08,1,4.31,2.46l26,33.73,25.61-33.36c1.35-1.6,2.58-2.83,4.67-2.83a4.53,4.53,0,0,1,4.44,4.55,5.33,5.33,0,0,1-1.36,3.45l-27.45,34.71,28.44,36.31a5.32,5.32,0,0,1,1.6,3.57,4.81,4.81,0,0,1-4.8,4.8c-2,0-3.08-1-4.31-2.46l-27.21-35.33-26.83,35c-1.35,1.6-2.58,2.83-4.8,2.83a4.5,4.5,0,0,1-4.31-4.55A5.27,5.27,0,0,1,333,346.9Z"/></g></g></svg>