<svg xmlns="http://www.w3.org/2000/svg" viewBox="0 0 449.41 569.36"><defs><style>.cls-1{fill:#8dc63f;}.cls-2{fill:#231f20;}.cls-3{fill:#fff;}.cls-4{fill:#dcddde;}</style></defs><g id="Layer_2" data-name="Layer 2"><g id="Capa_1" data-name="Capa 1"><path class="cls-1" d="M65.48,452.85C93.23,416.41,52,375.22,15.6,403-12.15,439.41,29,480.6,65.48,452.85Z"/><path class="cls-2" d="M70.18,457.55C27,490.76-22.31,441.47,10.9,398.27,54.1,365.07,103.39,414.35,70.18,457.55Zm-9.5-49.78C31.33,385.22-2.15,418.7,20.4,448.05,49.75,470.61,83.24,437.12,60.68,407.77Z"/><polygon class="cls-3" points="290.37 6.5 42.89 6.5 42.89 562.86 442.89 562.86 442.89 159.01 290.37 6.5"/><path class="cls-2" d="M442.89,569.36h-400a6.5,6.5,0,0,1-6.5-6.5V6.5A6.5,6.5,0,0,1,42.89,0H290.37A6.49,6.49,0,0,1,295,1.9L449.39,156.32V562.86A6.5,6.5,0,0,1,442.89,569.36ZM287.68,13H49.39V556.36h387V161.71Z"/><polygon class="cls-4" points="290.37 6.5 442.89 159.01 290.37 159.01 290.37 6.5"/><path class="cls-2" d="M442.89,165.52h-159V4.73c2.25-5.4,8-5.94,11.1-2.83L447.19,154.13c2.81,2.46,3.48,7.32-1.17,11.39Zm-146-143.33V152.52H427.19Z"/><path class="cls-1" d="M7,231.62V421.53H7.7a36.61,36.61,0,0,1,35.94-29.64H412.31V231.62Z"/><path class="cls-2" d="M13.53,428H.53V225.12H418.81V398.39H43.64A30.12,30.12,0,0,0,13.53,428ZM405.81,238.12H13.53V397.67a43,43,0,0,1,30.11-12.28H405.81Z"/><path class="cls-3" d="M104.31,348.92V272.61a4.92,4.92,0,0,1,4.8-4.93h55.77c4.3,4,1.65,8.86-2.22,8.86H114V306h43.08c4.09,0,6.82,5.79,1.41,8.87H114V345h51.45c4.31,4,1.65,8.87-2.22,8.87H109.11A4.92,4.92,0,0,1,104.31,348.92Z"/><path class="cls-3" d="M184.08,346.46l28.8-36.56-27.32-34.46a6,6,0,0,1-1.6-3.7,4.78,4.78,0,0,1,4.8-4.67c2,0,3.07,1,4.31,2.46l26,33.73,25.6-33.36c1.36-1.6,2.59-2.83,4.68-2.83a4.52,4.52,0,0,1,4.43,4.55,5.32,5.32,0,0,1-1.35,3.45L225,309.78l28.43,36.31a5.28,5.28,0,0,1,1.6,3.57,4.8,4.8,0,0,1-4.8,4.8c-2,0-3.08-1-4.31-2.46l-27.2-35.33-26.84,35c-1.35,1.6-2.58,2.83-4.8,2.83a4.5,4.5,0,0,1-4.3-4.55A5.32,5.32,0,0,1,184.08,346.46Z"/><path class="cls-3" d="M275.3,348.92V272.61a4.91,4.91,0,0,1,4.8-4.93h55.76c4.3,4,1.65,8.86-2.22,8.86H285V306H328.1c4.09,0,6.83,5.79,1.41,8.87H285V345h51.46c4.3,4,1.65,8.87-2.22,8.87H280.1A4.91,4.91,0,0,1,275.3,348.92Z"/></g></g></svg>