<?xml version="1.0" encoding="utf-8"?>
<!-- Generator: Adobe Illustrator 25.0.0, SVG Export Plug-In . SVG Version: 6.00 Build 0)  -->
<svg version="1.1" id="Layer_1" xmlns="http://www.w3.org/2000/svg" xmlns:xlink="http://www.w3.org/1999/xlink" x="0px" y="0px"
	 viewBox="0 0 84 60" style="enable-background:new 0 0 84 60;" xml:space="preserve">
<style type="text/css">
	.st0{fill:#FFB900;}
	.st1{fill:#FFD75E;}
	.st2{fill:url(#SVGID_1_);}
	.st3{opacity:0.4;fill:#FFFFFF;enable-background:new    ;}
	.st4{fill:#DA7B16;}
</style>
<path class="st0" d="M39,6l-4.2-4.2C33.6,0.6,32.1,0,30.5,0H3C1.3,0,0,1.3,0,3v56c0,0.6,0.4,1,1,1h82c0.6,0,1-0.4,1-1V9
	c0-1.7-1.3-3-3-3H39z"/>
<path class="st1" d="M39,6l-4.2,4.2c-1.1,1.1-2.7,1.8-4.2,1.8H0v47c0,0.6,0.4,1,1,1h82c0.6,0,1-0.4,1-1V9c0-1.7-1.3-3-3-3H39z"/>
<linearGradient id="SVGID_1_" gradientUnits="userSpaceOnUse" x1="42" y1="56" x2="42" y2="2" gradientTransform="matrix(1 0 0 -1 0 62)">
	<stop  offset="0" style="stop-color:#FFFFFF;stop-opacity:0"/>
	<stop  offset="1" style="stop-color:#FFD75E;stop-opacity:0.3"/>
</linearGradient>
<path class="st2" d="M39,6l-4.2,4.2c-1.1,1.1-2.7,1.8-4.2,1.8H0v47c0,0.6,0.4,1,1,1h82c0.6,0,1-0.4,1-1V9c0-1.7-1.3-3-3-3H39z"/>
<path class="st3" d="M0,12v1h30.6c1.9,0,3.6-0.7,4.9-2.1L40.5,6H39l-4.2,4.2c-1.1,1.1-2.7,1.8-4.2,1.8H0z"/>
<path class="st4" d="M83,60H1c-0.6,0-1-0.4-1-1l0,0h84l0,0C84,59.6,83.6,60,83,60z"/>
</svg>
