<svg xmlns="http://www.w3.org/2000/svg" viewBox="0 0 449.41 569.36"><defs><style>.cls-1{fill:#2bb673;}.cls-2{fill:#231f20;}.cls-3{fill:#fff;}.cls-4{fill:#dcddde;}</style></defs><g id="Layer_2" data-name="Layer 2"><g id="Capa_1" data-name="Capa 1"><path class="cls-1" d="M65.48,452.85C93.23,416.41,52,375.23,15.6,403-12.15,439.41,29,480.6,65.48,452.85Z"/><path class="cls-2" d="M70.18,457.56C27,490.76-22.31,441.47,10.9,398.27,54.1,365.06,103.39,414.35,70.18,457.56Zm-9.5-49.78C31.33,385.22-2.16,418.7,20.4,448.05,49.75,470.61,83.24,437.12,60.68,407.78Z"/><polygon class="cls-3" points="290.37 6.5 42.89 6.5 42.89 562.86 442.89 562.86 442.89 159.02 290.37 6.5"/><path class="cls-2" d="M442.89,569.36h-400a6.5,6.5,0,0,1-6.5-6.5V6.5A6.5,6.5,0,0,1,42.89,0H290.37A6.49,6.49,0,0,1,295,1.9L447.48,154.42a6.5,6.5,0,0,1,1.91,4.6V562.86A6.5,6.5,0,0,1,442.89,569.36ZM287.68,13H49.39V556.36h387V161.71Z"/><polygon class="cls-4" points="290.37 6.5 442.89 159.02 290.37 159.02 290.37 6.5"/><path class="cls-2" d="M442.89,165.52h-159V4.76c2.22-5.42,8-6,11.1-2.86L447.19,154.13c2.81,2.46,3.48,7.31-1.16,11.39Zm-146-143.33V152.52H427.19Z"/><path class="cls-1" d="M7,231.62V421.53H7.7a36.61,36.61,0,0,1,35.94-29.64H412.31V231.62Z"/><path class="cls-2" d="M13.53,428H.53V225.12H418.81V398.39H43.64A30.13,30.13,0,0,0,13.53,428ZM405.81,238.12H13.53V397.67a43,43,0,0,1,30.11-12.28H405.81Z"/><path class="cls-3" d="M100.27,342.15c-1.56-1.55-2.57-5.29,1.56-7.76a4.47,4.47,0,0,1,5.33,1.36c4.68,6.4,9.72,9.73,17.72,9.73,9.73,0,16.87-7,16.87-20.68V268.9c4.59-4.8,9.72-1.77,9.72,2.48v53.29c0,10.1-2.95,17.73-7.88,22.65-4.8,4.68-11.32,7.14-19,7.14A28.94,28.94,0,0,1,100.27,342.15Z"/><path class="cls-3" d="M174.49,272a4.91,4.91,0,0,1,4.8-4.92h27.45c19.45,0,32.25,10.34,32.25,27.32v.25c0,18.59-15.51,28.19-33.85,28.19H184.22v27.86c-3.78,5.79-9.73,2.67-9.73-1.77Zm31,42c14.28,0,23.64-7.64,23.64-19v-.25c0-12.31-9.24-18.71-23.15-18.71H184.22V314Z"/><path class="cls-3" d="M252.91,310.4v-.25c0-23.63,17.35-44.56,43.2-44.56,13.05,0,21.54,3.45,29.42,9.23a4.92,4.92,0,0,1-2.83,8.86,5.14,5.14,0,0,1-3.08-1.23c-6.15-4.67-13-7.87-23.88-7.87-19.08,0-32.74,16.12-32.74,35.32v.25c0,20.56,13.17,35.82,34.1,35.82A40.56,40.56,0,0,0,322,337.35V315.94H296.61c-4.17-4-1.43-8.74,2.21-8.74h27.7a4.91,4.91,0,0,1,4.8,4.92v26.22a6.94,6.94,0,0,1-3.33,5.91,52.52,52.52,0,0,1-31.26,10.46C269.65,354.71,252.91,335,252.91,310.4Z"/></g></g></svg>