<svg xmlns="http://www.w3.org/2000/svg" viewBox="0 0 449.41 569.36"><defs><style>.cls-1{fill:#f7921e;}.cls-2{fill:#231f20;}.cls-3{fill:#fff;}.cls-4{fill:#dcddde;}</style></defs><g id="Layer_2" data-name="Layer 2"><g id="Capa_1" data-name="Capa 1"><path class="cls-1" d="M65.48,452.85C93.23,416.41,52,375.22,15.6,403-12.15,439.41,29,480.6,65.48,452.85Z"/><path class="cls-2" d="M70.18,457.56C27,490.76-22.31,441.47,10.9,398.27,54.1,365.06,103.39,414.35,70.18,457.56Zm-9.5-49.78C31.33,385.22-2.15,418.7,20.4,448.05,49.75,470.61,83.24,437.13,60.68,407.78Z"/><polygon class="cls-3" points="290.37 6.5 42.89 6.5 42.89 562.86 442.89 562.86 442.89 159.01 290.37 6.5"/><path class="cls-2" d="M442.89,569.36h-400a6.5,6.5,0,0,1-6.5-6.5V6.5A6.5,6.5,0,0,1,42.89,0H290.37A6.51,6.51,0,0,1,295,1.9L447.48,154.42a6.5,6.5,0,0,1,1.91,4.6V562.86A6.5,6.5,0,0,1,442.89,569.36ZM287.68,13H49.39V556.36h387V161.71Z"/><polygon class="cls-4" points="290.37 6.5 442.89 159.01 290.37 159.01 290.37 6.5"/><path class="cls-2" d="M442.89,165.52h-159V4.76c2.22-5.42,8-6,11.1-2.86L447.19,154.12c2.81,2.47,3.47,7.32-1.15,11.4Zm-146-143.33V152.52H427.19Z"/><path class="cls-1" d="M7,231.62V421.53H7.7a36.61,36.61,0,0,1,35.94-29.64H412.31V231.62Z"/><path class="cls-2" d="M13.53,428H.53V225.12H418.81V398.39H43.64A30.13,30.13,0,0,0,13.53,428ZM405.81,238.12H13.53V397.67a43,43,0,0,1,30.11-12.28H405.81Z"/><path class="cls-3" d="M105.07,272.43a4.91,4.91,0,0,1,4.8-4.92h27.45c19.45,0,32.25,10.34,32.25,27.32v.25c0,18.59-15.51,28.19-33.85,28.19H114.79v27.86c-3.78,5.79-9.72,2.67-9.72-1.77Zm31,42c14.28,0,23.63-7.64,23.63-19v-.25c0-12.31-9.23-18.71-23.14-18.71H114.79v37.92Z"/><path class="cls-3" d="M187.3,272.43a4.91,4.91,0,0,1,4.8-4.92h25.11c27.08,0,45.79,18.58,45.79,42.83v.25c0,24.25-18.71,43.08-45.79,43.08H192.1a4.91,4.91,0,0,1-4.8-4.92Zm29.91,72.26c21.79,0,35.7-14.77,35.7-33.85v-.25c0-19.08-13.91-34.1-35.7-34.1H197v68.2Z"/><path class="cls-3" d="M283.56,272.43a4.91,4.91,0,0,1,4.8-4.92h55.32c4.58,3.65,1.91,9-2,9H293.29v30.78h45c4.3,4,1.65,8.86-2.22,8.86H293.29v35c-3.78,5.79-9.73,2.67-9.73-1.77Z"/></g></g></svg>