<svg xmlns="http://www.w3.org/2000/svg" viewBox="0 0 449.41 569.36"><defs><style>.cls-1{fill:#8993c1;}.cls-2{fill:#231f20;}.cls-3{fill:#fff;}.cls-4{fill:#dcddde;}</style></defs><g id="Layer_2" data-name="Layer 2"><g id="Capa_1" data-name="Capa 1"><path class="cls-1" d="M65.48,452.85C93.23,416.41,52,375.22,15.6,403-12.15,439.41,29,480.6,65.48,452.85Z"/><path class="cls-2" d="M70.18,457.56C27,490.76-22.31,441.47,10.9,398.27,54.1,365.06,103.39,414.35,70.18,457.56Zm-9.5-49.78C31.33,385.22-2.15,418.7,20.4,448.05,49.75,470.61,83.24,437.13,60.68,407.78Z"/><polygon class="cls-3" points="290.37 6.5 42.89 6.5 42.89 562.86 442.89 562.86 442.89 159.01 290.37 6.5"/><path class="cls-2" d="M442.89,569.36h-400a6.5,6.5,0,0,1-6.5-6.5V6.5A6.5,6.5,0,0,1,42.89,0H290.37A6.49,6.49,0,0,1,295,1.9L449.39,156.32V562.86A6.5,6.5,0,0,1,442.89,569.36ZM287.68,13H49.39V556.36h387V161.71Z"/><polygon class="cls-4" points="290.37 6.5 442.89 159.01 290.37 159.01 290.37 6.5"/><path class="cls-2" d="M442.89,165.52h-159V4.73c2.25-5.4,8-5.94,11.1-2.83L447.19,154.13c2.81,2.46,3.48,7.32-1.17,11.39Zm-146-143.33V152.52H427.19Z"/><path class="cls-1" d="M7,231.62V421.53H7.7a36.61,36.61,0,0,1,35.94-29.64H412.31V231.62Z"/><path class="cls-2" d="M13.53,428H.53V225.12H418.81V398.39H43.64A30.13,30.13,0,0,0,13.53,428ZM405.81,238.12H13.53V397.67a43,43,0,0,1,30.11-12.28H405.81Z"/><path class="cls-3" d="M102,273.05a4.92,4.92,0,0,1,4.8-4.93h27.45c19.45,0,32.25,10.34,32.25,27.33v.25c0,18.58-15.51,28.18-33.85,28.18H111.76v27.86C108,357.53,102,354.42,102,350Zm31,42c14.28,0,23.64-7.63,23.64-19v-.24c0-12.31-9.23-18.71-23.14-18.71H111.76V315Z"/><path class="cls-3" d="M184.26,272.43c0-4.44,6-7.55,9.73-1.76V306.4h49.73V270.67c3.77-5.79,9.72-2.68,9.72,1.76V350c0,4.44-5.95,7.55-9.72,1.76V315.51H194v36.23c-3.78,5.79-9.73,2.68-9.73-1.76Z"/><path class="cls-3" d="M277.82,273.05a4.91,4.91,0,0,1,4.8-4.93h27.45c19.45,0,32.25,10.34,32.25,27.33v.25c0,18.58-15.51,28.18-33.85,28.18H287.54v27.86c-3.77,5.79-9.72,2.68-9.72-1.76Zm31,42c14.28,0,23.63-7.63,23.63-19v-.24c0-12.31-9.23-18.71-23.14-18.71H287.54V315Z"/></g></g></svg>