<svg xmlns="http://www.w3.org/2000/svg" viewBox="0 0 449.41 569.36"><defs><style>.cls-1{fill:#2bb673;}.cls-2{fill:#231f20;}.cls-3{fill:#fff;}.cls-4{fill:#dcddde;}</style></defs><g id="Layer_2" data-name="Layer 2"><g id="Capa_1" data-name="Capa 1"><path class="cls-1" d="M65.48,452.85C93.23,416.41,52,375.22,15.6,403-12.15,439.41,29,480.6,65.48,452.85Z"/><path class="cls-2" d="M70.18,457.55C27,490.76-22.31,441.47,10.9,398.27,54.1,365.06,103.39,414.35,70.18,457.55Zm-9.5-49.78C31.33,385.22-2.16,418.7,20.41,448.05,49.76,470.61,83.24,437.12,60.68,407.77Z"/><polygon class="cls-3" points="290.37 6.5 42.89 6.5 42.89 562.86 442.89 562.86 442.89 159.01 290.37 6.5"/><path class="cls-2" d="M442.89,569.36h-400a6.5,6.5,0,0,1-6.5-6.5V6.5A6.5,6.5,0,0,1,42.89,0H290.37A6.51,6.51,0,0,1,295,1.9L447.48,154.42a6.5,6.5,0,0,1,1.91,4.6V562.86A6.5,6.5,0,0,1,442.89,569.36ZM287.68,13H49.39V556.36h387V161.71Z"/><polygon class="cls-4" points="290.37 6.5 442.89 159.01 290.37 159.01 290.37 6.5"/><path class="cls-2" d="M442.89,165.52h-159V4.75c2.23-5.42,8-6,11.1-2.85L447.19,154.13c2.81,2.46,3.47,7.31-1.15,11.39Zm-146-143.33V152.52H427.19Z"/><path class="cls-1" d="M7,231.62V421.53H7.7a36.61,36.61,0,0,1,35.94-29.64H412.31V231.62Z"/><path class="cls-2" d="M13.53,428H.53V225.12H418.81V398.39H43.64A30.12,30.12,0,0,0,13.53,428ZM405.81,238.12H13.53V397.67a43,43,0,0,1,30.11-12.28H405.81Z"/><path class="cls-3" d="M132.22,277.59H105.28c-5-3.65-2-9,2-9h61.85c4.86,4,1.88,9-2,9h-25v75.17c-4.27,5.06-9.85,2-9.85-2.3Z"/><path class="cls-3" d="M186.51,347.39l28.81-36.56L188,276.36a5.93,5.93,0,0,1-1.6-3.69,4.78,4.78,0,0,1,4.8-4.68c2,0,3.08,1,4.31,2.46l26,33.73,25.6-33.36c1.36-1.6,2.59-2.83,4.68-2.83a4.52,4.52,0,0,1,4.43,4.56,5.27,5.27,0,0,1-1.35,3.44l-27.45,34.72L255.81,347a5.26,5.26,0,0,1,1.6,3.57,4.81,4.81,0,0,1-4.8,4.8c-2,0-3.07-1-4.31-2.46L221.1,317.6l-26.83,35c-1.36,1.6-2.59,2.83-4.8,2.83a4.5,4.5,0,0,1-4.31-4.56A5.27,5.27,0,0,1,186.51,347.39Z"/><path class="cls-3" d="M300.5,277.59H273.55c-5-3.65-2-9,2-9h61.86c4.85,4,1.87,9-2,9h-25v75.17c-4.27,5.06-9.85,2-9.85-2.3Z"/></g></g></svg>